<svg width="1920" height="80" viewBox="0 0 1920 80" fill="none" xmlns="http://www.w3.org/2000/svg">
<rect x="40" y="40" width="40" height="40" fill="#73160E"/>
<rect x="1000" y="40" width="40" height="40" fill="#73160E"/>
<rect x="520" y="40" width="40" height="40" fill="#73160E"/>
<rect x="1480" y="40" width="40" height="40" fill="#73160E"/>
<rect x="280" y="40" width="40" height="40" fill="#73160E"/>
<rect x="1240" y="40" width="40" height="40" fill="#73160E"/>
<rect x="760" y="40" width="40" height="40" fill="#73160E"/>
<rect x="1720" y="40" width="40" height="40" fill="#73160E"/>
<rect x="80" width="40" height="40" fill="#73160E"/>
<rect x="1040" width="40" height="40" fill="#73160E"/>
<rect x="560" width="40" height="40" fill="#73160E"/>
<rect x="1520" width="40" height="40" fill="#73160E"/>
<rect x="320" width="40" height="40" fill="#73160E"/>
<rect x="1280" width="40" height="40" fill="#73160E"/>
<rect x="800" width="40" height="40" fill="#73160E"/>
<rect x="1760" width="40" height="40" fill="#73160E"/>
<rect x="120" y="40" width="40" height="40" fill="#73160E"/>
<rect x="1080" y="40" width="40" height="40" fill="#73160E"/>
<rect x="600" y="40" width="40" height="40" fill="#73160E"/>
<rect x="1560" y="40" width="40" height="40" fill="#73160E"/>
<rect x="360" y="40" width="40" height="40" fill="#73160E"/>
<rect x="1320" y="40" width="40" height="40" fill="#73160E"/>
<rect x="840" y="40" width="40" height="40" fill="#73160E"/>
<rect x="1800" y="40" width="40" height="40" fill="#73160E"/>
<rect x="160" width="40" height="40" fill="#73160E"/>
<rect x="1120" width="40" height="40" fill="#73160E"/>
<rect x="640" width="40" height="40" fill="#73160E"/>
<rect x="1600" width="40" height="40" fill="#73160E"/>
<rect x="400" width="40" height="40" fill="#73160E"/>
<rect x="1360" width="40" height="40" fill="#73160E"/>
<rect x="880" width="40" height="40" fill="#73160E"/>
<rect x="1840" width="40" height="40" fill="#73160E"/>
<rect x="200" y="40" width="40" height="40" fill="#73160E"/>
<rect x="1160" y="40" width="40" height="40" fill="#73160E"/>
<rect x="680" y="40" width="40" height="40" fill="#73160E"/>
<rect x="1640" y="40" width="40" height="40" fill="#73160E"/>
<rect x="440" y="40" width="40" height="40" fill="#73160E"/>
<rect x="1400" y="40" width="40" height="40" fill="#73160E"/>
<rect x="920" y="40" width="40" height="40" fill="#73160E"/>
<rect x="1880" y="40" width="40" height="40" fill="#73160E"/>
<rect width="40" height="40" fill="#73160E"/>
<rect x="960" width="40" height="40" fill="#73160E"/>
<rect x="480" width="40" height="40" fill="#73160E"/>
<rect x="1440" width="40" height="40" fill="#73160E"/>
<rect x="240" width="40" height="40" fill="#73160E"/>
<rect x="1200" width="40" height="40" fill="#73160E"/>
<rect x="720" width="40" height="40" fill="#73160E"/>
<rect x="1680" width="40" height="40" fill="#73160E"/>
</svg>
