<svg width="631" height="192" viewBox="0 0 631 192" fill="none" xmlns="http://www.w3.org/2000/svg">
<path d="M76.2818 185.163C75.9132 185.163 75.2683 185.257 74.3471 185.444C73.4258 185.631 72.5045 185.725 71.5832 185.725C70.662 185.912 69.8328 186.006 69.0958 186.006C68.543 186.193 68.3588 186.287 68.543 186.287H55.0002C52.0522 185.912 49.5647 185.631 47.5379 185.444C45.6953 185.444 44.037 185.538 42.563 185.725C42.1945 185.725 41.826 185.538 41.4575 185.163C41.089 184.976 40.8126 184.788 40.6283 184.601C40.4441 182.915 40.3519 180.386 40.3519 177.015C40.5362 173.643 40.6283 171.021 40.6283 169.147V165.214C40.9968 162.029 41.089 159.22 40.9047 156.784C40.7204 154.162 40.6283 151.259 40.6283 148.074V141.893C41.5496 137.772 41.7339 133.463 41.1811 128.968C40.8126 124.472 40.6283 120.351 40.6283 116.605V44.9561C40.6283 43.0829 40.1677 42.1463 39.2464 42.1463C36.6668 41.959 34.64 41.8654 33.166 41.8654C31.6919 41.8654 29.6651 41.959 27.0855 42.1463C25.98 42.1463 24.0453 41.8654 21.2815 41.3034C18.7019 40.7415 16.9515 40.5541 16.0302 40.7415C15.1089 41.1161 13.1743 41.1161 10.2262 40.7415C7.46234 40.3668 5.61979 40.1795 4.69851 40.1795C3.77724 40.1795 2.94809 40.1795 2.21107 40.1795C1.47404 39.9922 0.737022 39.6176 0 39.0556V21.6351C0.737022 21.2605 1.84255 21.0732 3.3166 21.0732C4.79064 21.0732 6.26468 21.0732 7.73873 21.0732C9.58128 21.0732 11.2396 21.0732 12.7136 21.0732C14.1877 21.0732 15.5696 20.9795 16.8594 20.7922C17.2279 20.7922 18.5177 20.8859 20.7287 21.0732C22.9398 21.2605 24.7824 21.4478 26.2564 21.6351C27.3619 21.2605 28.4675 21.0732 29.573 21.0732C32.3368 20.8859 34.9164 20.8859 37.3117 21.0732C38.97 21.2605 40.1677 21.2605 40.9047 21.0732C41.6417 20.8859 42.7473 20.7922 44.2213 20.7922H48.6434L56.1058 21.3542C57.9483 21.3542 59.7909 21.3542 61.6334 21.3542C63.476 21.1668 65.3186 21.1668 67.1611 21.3542C71.399 21.7288 75.4526 21.9161 79.322 21.9161C83.3756 21.7288 86.6922 21.4478 89.2718 21.0732C90.5615 21.0732 92.8647 21.2605 96.1813 21.6351C99.4979 22.0098 102.722 22.2907 105.855 22.478C107.882 22.6654 109.54 22.6654 110.83 22.478C112.119 22.2907 113.225 22.2907 114.146 22.478V35.4029C114.146 36.1522 114.238 36.6205 114.423 36.8078C114.607 36.9951 114.515 37.8381 114.146 39.3366C113.962 40.0859 113.225 40.5541 111.935 40.7415C110.645 40.7415 109.632 40.7415 108.895 40.7415C104.104 41.4907 99.6822 41.7717 95.6286 41.5844C91.7592 41.3971 87.982 41.3034 84.2969 41.3034C82.8228 41.3034 81.6252 41.3034 80.7039 41.3034C79.9669 41.3034 79.0456 41.3971 77.94 41.5844V48.0468C77.94 49.5454 77.8479 51.7932 77.6637 54.7903C77.6637 57.7873 77.6637 60.1288 77.6637 61.8146C77.6637 62.5639 77.6637 63.1259 77.6637 63.5005C77.6637 63.8751 77.5715 64.4371 77.3873 65.1863C77.3873 65.7483 77.2952 66.6849 77.1109 67.9961C76.9266 69.12 76.5581 70.8059 76.0054 73.0537C76.0054 76.2381 76.0054 78.9542 76.0054 81.202C76.0054 83.4498 76.0054 85.5102 76.0054 87.3834C76.1896 89.2566 76.2818 91.1298 76.2818 93.0029C76.2818 94.6888 76.2818 96.7493 76.2818 99.1844V101.994C75.5447 105.179 75.3605 108.363 75.729 111.547C76.0975 114.732 76.2818 117.916 76.2818 121.101V185.163Z" fill="#73160E"/>
<path d="M232.89 185.444L230.955 185.725C230.034 185.912 229.389 185.912 229.02 185.725C228.836 185.725 228.007 185.725 226.533 185.725C226.348 185.725 225.796 185.819 224.874 186.006C223.953 186.193 222.94 186.38 221.834 186.568C220.729 186.755 219.531 186.755 218.241 186.568C216.951 186.568 215.938 186.38 215.201 186.006C214.28 186.006 213.635 185.912 213.266 185.725C212.898 185.538 212.253 185.444 211.332 185.444C210.41 184.695 209.858 183.571 209.673 182.072C209.673 180.574 209.673 179.356 209.673 178.42V171.395L207.462 174.486L202.487 179.262C200.645 180.574 199.079 181.604 197.789 182.353C196.683 183.29 195.301 184.226 193.643 185.163C190.879 186.849 187.839 187.973 184.522 188.535C181.39 189.097 178.442 189.378 175.678 189.378C172.914 189.378 169.966 188.816 166.834 187.692C163.886 186.568 161.214 185.538 158.819 184.601C158.082 184.414 157.345 184.039 156.608 183.477C156.055 183.102 155.502 182.728 154.949 182.353C153.844 181.417 152.554 180.48 151.08 179.543C149.79 178.607 148.685 177.67 147.763 176.734C147.211 176.359 146.658 175.984 146.105 175.61C145.737 175.048 145.184 174.58 144.447 174.205C143.526 173.643 142.696 172.706 141.959 171.395C141.038 169.335 139.841 167.368 138.366 165.495C137.077 163.434 135.971 161.093 135.05 158.47C134.497 156.41 133.76 154.443 132.839 152.57C131.918 150.697 131.457 148.917 131.457 147.231C131.457 146.295 131.365 144.702 131.181 142.455C130.996 140.207 130.904 138.615 130.904 137.678C130.904 135.992 130.904 134.681 130.904 133.744C131.088 132.808 131.181 131.403 131.181 129.53C131.181 128.593 131.273 127.657 131.457 126.72C131.825 125.596 132.194 124.191 132.562 122.505C132.931 120.445 133.207 118.291 133.392 116.043C133.576 113.608 133.852 111.641 134.221 110.142C135.51 107.707 136.34 106.209 136.708 105.647C137.261 105.085 137.722 104.055 138.09 102.556C138.459 101.432 138.919 100.027 139.472 98.3415C140.209 96.4683 141.222 95.0634 142.512 94.1268C143.065 93.7522 143.894 93.0966 145 92.16C146.105 91.2234 147.211 90.1932 148.316 89.0693C149.606 87.9454 150.712 87.0088 151.633 86.2595C152.554 85.3229 153.199 84.8546 153.568 84.8546L158.542 82.6068C160.016 82.0449 161.675 81.6702 163.517 81.4829C165.36 81.1083 167.11 80.921 168.769 80.921L177.337 80.64C178.258 80.64 179.271 80.64 180.377 80.64C181.666 80.64 182.496 80.7337 182.864 80.921C183.785 80.921 184.707 81.202 185.628 81.7639C186.549 82.3259 187.471 82.6068 188.392 82.6068C189.313 82.6068 190.419 82.9815 191.708 83.7307C193.182 84.2927 194.38 85.042 195.301 85.9785C197.144 86.7278 198.526 87.6644 199.447 88.7883C200.553 89.7249 201.566 90.6615 202.487 91.5981C203.409 92.5346 204.238 93.4712 204.975 94.4078C205.896 95.1571 206.817 96 207.739 96.9366C207.739 97.4985 208.107 97.9668 208.844 98.3415C209.213 98.5288 209.489 98.7161 209.673 98.9034C210.042 98.5288 210.226 97.7795 210.226 96.6556C210.41 95.5317 210.779 94.5015 211.332 93.5649C211.516 90.9425 211.608 88.601 211.608 86.5405C211.792 84.2927 211.977 82.7942 212.161 82.0449C211.977 81.2956 212.069 80.2654 212.437 78.9542C212.806 77.4556 213.451 76.8937 214.372 77.2683C214.74 77.081 215.569 77.081 216.859 77.2683C218.149 77.4556 219.623 77.7366 221.281 78.1112C222.94 78.2985 224.598 78.4859 226.256 78.6732C228.099 78.8605 229.665 78.9542 230.955 78.9542C231.139 78.9542 231.231 79.4224 231.231 80.359C231.231 81.2956 231.139 82.0449 230.955 82.6068L232.613 109.58V139.926C232.613 140.488 232.521 141.05 232.337 141.612C232.337 142.174 232.337 142.736 232.337 143.298C232.521 144.983 232.613 146.763 232.613 148.636C232.613 150.322 232.613 152.101 232.613 153.975C232.797 155.286 232.797 156.691 232.613 158.189C232.613 159.5 232.613 160.905 232.613 162.404C232.613 163.528 232.613 165.12 232.613 167.18C232.797 169.054 232.89 171.02 232.89 173.081C232.89 175.141 232.89 177.108 232.89 178.981C232.89 181.042 232.89 182.728 232.89 184.039V185.444ZM197.236 142.174C197.236 141.05 197.42 138.615 197.789 134.868C198.157 130.935 197.328 126.158 195.301 120.539C194.749 119.04 193.919 117.448 192.814 115.762C191.708 114.076 189.958 112.765 187.563 111.828C186.273 111.454 185.075 111.079 183.97 110.704C182.864 110.142 181.666 109.955 180.377 110.142C179.087 110.517 177.429 111.36 175.402 112.671C173.559 113.982 171.993 115.575 170.703 117.448C169.782 118.384 169.229 119.415 169.045 120.539C168.861 121.662 168.676 122.974 168.492 124.472C167.939 126.907 167.479 128.78 167.11 130.092C166.926 131.403 166.834 133.089 166.834 135.149C166.834 138.896 167.847 142.174 169.874 144.983C172.085 147.793 173.467 149.666 174.02 150.603C174.573 151.165 175.033 151.54 175.402 151.727C175.955 151.727 176.692 152.195 177.613 153.132C179.455 154.068 181.206 154.256 182.864 153.694C184.522 152.944 186.365 152.101 188.392 151.165H190.05C191.708 150.228 193.09 149.292 194.196 148.355C195.301 147.419 196.315 146.014 197.236 144.14V142.174Z" fill="#73160E"/>
<path d="M308.705 142.174C308.889 142.548 309.165 143.204 309.534 144.14C309.903 144.89 310.271 145.358 310.64 145.545C311.561 145.545 312.114 145.171 312.298 144.421C312.666 143.485 313.311 142.455 314.233 141.331C316.628 136.46 318.655 132.34 320.313 128.968C322.155 125.409 324.274 121.381 326.67 116.886L331.921 103.961C332.658 102.65 333.671 100.87 334.961 98.6224C336.435 96.1873 337.357 94.3142 337.725 93.0029C338.094 91.879 338.37 91.0361 338.554 90.4742C338.923 89.9122 339.291 88.9756 339.66 87.6644C339.66 87.4771 339.844 86.9151 340.213 85.9785C340.765 85.042 341.318 84.1054 341.871 83.1688C342.424 82.2322 342.884 81.3893 343.253 80.64C343.806 79.7034 344.174 79.0478 344.358 78.6732C348.043 79.6098 351.36 80.64 354.308 81.7639C357.256 82.7005 360.481 84.1054 363.981 85.9785C363.06 87.6644 362.323 89.0693 361.77 90.1932C361.402 91.1298 361.033 92.16 360.665 93.2839C359.559 95.5317 358.177 97.8732 356.519 100.308C355.045 102.556 354.124 104.055 353.755 104.804L348.78 116.886C347.306 119.696 345.648 122.505 343.806 125.315C343.621 125.69 343.345 126.252 342.976 127.001C342.792 127.563 342.516 128.031 342.147 128.406C341.226 129.904 340.12 132.059 338.831 134.868C337.541 137.678 336.067 140.675 334.408 143.86C332.934 146.857 331.46 149.76 329.986 152.57C328.697 155.192 327.591 157.065 326.67 158.189C325.196 160.999 323.906 163.434 322.8 165.495C321.879 167.555 320.774 169.99 319.484 172.8C319.3 173.737 318.931 174.673 318.378 175.61C318.01 176.359 317.641 177.202 317.273 178.139C316.904 179.075 316.536 180.012 316.167 180.948C315.799 181.885 315.154 182.821 314.233 183.758C313.864 183.945 313.035 184.133 311.745 184.32C310.455 184.507 309.073 184.695 307.599 184.882C306.125 185.069 304.743 185.163 303.454 185.163C302.164 185.35 301.243 185.35 300.69 185.163C300.321 184.976 299.861 184.507 299.308 183.758C298.755 183.009 298.202 182.166 297.65 181.229C297.281 180.48 296.913 179.637 296.544 178.701C296.175 177.951 295.899 177.483 295.715 177.296L291.016 170.833C290.464 169.897 289.358 167.93 287.7 164.933C286.226 161.748 284.475 158.845 282.448 156.222L276.921 145.545C276.368 144.234 275.539 142.548 274.433 140.488C273.328 138.24 272.314 136.554 271.393 135.43C270.656 134.494 270.103 133.463 269.735 132.34C269.551 131.216 268.998 129.623 268.077 127.563C267.155 126.626 266.05 124.753 264.76 121.943C263.47 118.946 261.904 116.511 260.061 114.638C259.693 114.076 259.048 113.046 258.127 111.547C257.205 110.049 256.284 108.738 255.363 107.614C254.442 105.553 253.428 103.586 252.323 101.713C251.217 99.84 249.927 97.5922 248.453 94.9698C248.638 94.7824 248.822 94.5015 249.006 94.1268C249.19 93.9395 249.743 93.4712 250.664 92.722C251.77 91.7854 252.968 90.7551 254.257 89.6312C255.547 88.5073 257.482 87.3834 260.061 86.2595L269.735 78.6732C270.103 78.6732 270.472 78.7668 270.84 78.9542C271.393 79.1415 271.854 79.3288 272.222 79.5161L273.051 80.359C275.447 82.7942 277.105 85.3229 278.026 87.9454C279.132 90.5678 280.698 93.1903 282.725 95.8127C283.278 96.7493 283.922 98.0605 284.66 99.7463C285.581 101.432 286.41 103.212 287.147 105.085C288.068 106.958 288.99 108.738 289.911 110.423C290.832 111.922 291.569 113.14 292.122 114.076C295.07 118.01 297.926 122.693 300.69 128.125C303.638 133.557 306.31 138.24 308.705 142.174Z" fill="#73160E"/>
<path d="M400.319 76.7064C401.609 76.3317 403.175 75.7698 405.018 75.0205C406.86 74.2712 408.703 73.8966 410.546 73.8966C412.941 73.8966 415.152 73.8966 417.179 73.8966C419.206 73.7093 421.417 73.6156 423.812 73.6156C425.655 73.6156 427.405 73.7093 429.063 73.8966C430.906 73.8966 432.564 74.1776 434.038 74.7395C434.407 74.7395 434.867 74.8332 435.42 75.0205C435.973 75.2078 436.71 75.7698 437.631 76.7064C439.474 77.2683 441.224 78.2049 442.882 79.5161C444.541 80.8273 446.015 82.4195 447.305 84.2927C448.779 86.1659 450.068 88.1327 451.174 90.1932C452.464 92.0663 453.569 93.9395 454.49 95.8127C455.412 97.3112 455.965 99.2781 456.149 101.713C456.517 104.148 456.978 106.115 457.531 107.614C457.531 110.236 457.623 112.765 457.807 115.2C458.176 117.635 458.36 120.164 458.36 122.786C458.36 127.095 458.268 131.216 458.083 135.149C457.899 139.083 457.807 143.204 457.807 147.512L457.254 156.784C457.254 157.534 456.886 158.845 456.149 160.718C455.412 162.591 454.951 163.996 454.767 164.933C454.214 166.806 453.477 169.054 452.556 171.676C451.634 174.111 450.99 175.516 450.621 175.891C449.7 176.827 449.055 177.67 448.686 178.42C448.318 179.169 447.949 179.918 447.581 180.667C447.397 181.417 447.028 182.072 446.475 182.634C446.107 183.196 445.37 183.758 444.264 184.32C443.343 184.695 442.237 185.257 440.948 186.006C439.658 186.942 438.46 187.785 437.355 188.535C436.433 188.909 435.973 189.19 435.973 189.378C435.973 189.752 435.328 190.127 434.038 190.501L429.063 191.625C426.852 192 425.01 192.094 423.536 191.906C422.246 191.719 420.772 191.625 419.113 191.625C413.954 191.625 408.795 190.595 403.636 188.535C401.978 188.535 400.319 188.16 398.661 187.411C397.187 186.661 396.082 185.819 395.344 184.882C394.423 184.133 393.502 183.29 392.581 182.353C391.659 181.604 390.738 180.761 389.817 179.824C388.343 178.139 387.145 176.453 386.224 174.767C385.303 173.081 384.381 171.301 383.46 169.428C382.539 167.368 381.525 165.307 380.42 163.247C379.314 160.999 378.577 158.564 378.209 155.941C377.84 151.633 377.472 147.7 377.103 144.14C376.919 140.581 376.827 137.022 376.827 133.463V121.943C376.643 121.569 376.55 120.82 376.55 119.696C376.55 118.572 376.643 117.822 376.827 117.448C376.827 116.511 376.827 115.575 376.827 114.638C377.011 113.514 377.195 112.484 377.38 111.547C377.564 110.049 377.656 108.55 377.656 107.052C377.656 105.553 378.117 104.055 379.038 102.556C378.854 102.931 378.946 102.65 379.314 101.713C379.867 100.589 380.42 99.4654 380.973 98.3415C381.525 97.0303 381.986 95.9063 382.354 94.9698C382.723 94.0332 382.907 93.6585 382.907 93.8459L384.842 90.1932C385.395 89.6312 385.947 88.9756 386.5 88.2263C387.053 87.4771 387.79 86.6342 388.711 85.6976C389.817 84.761 391.199 83.5434 392.857 82.0449C394.7 80.5463 397.187 78.7668 400.319 76.7064ZM420.495 123.348C419.758 123.348 419.021 123.723 418.284 124.472C417.732 125.221 417.363 125.877 417.179 126.439C415.889 129.249 415.244 131.59 415.244 133.463C415.244 138.521 416.995 141.893 420.495 143.579C421.417 143.579 422.154 143.298 422.706 142.736C423.443 141.986 423.812 141.237 423.812 140.488C423.812 138.615 423.996 136.46 424.365 134.025C424.917 131.59 424.733 129.061 423.812 126.439C422.891 125.502 422.338 124.753 422.154 124.191C421.969 123.629 421.417 123.348 420.495 123.348Z" fill="#73160E"/>
<path d="M505.403 106.209C505.587 106.583 505.68 107.52 505.68 109.019C505.68 110.517 505.68 111.641 505.68 112.39C505.311 113.327 505.127 114.263 505.127 115.2C505.127 115.949 505.127 116.792 505.127 117.729C505.127 118.853 505.219 121.007 505.403 124.191C505.587 127.188 505.68 129.342 505.68 130.654V136.835C505.68 138.521 505.68 140.207 505.68 141.893C505.864 143.579 505.956 145.264 505.956 146.95C505.956 148.261 505.864 149.573 505.68 150.884C505.495 152.008 505.495 153.225 505.68 154.537C505.68 155.661 505.772 156.784 505.956 157.908C506.14 158.845 506.232 159.875 506.232 160.999V186.568C506.232 187.504 506.325 188.441 506.509 189.378C506.877 190.314 506.785 190.689 506.232 190.501C504.39 190.501 502.271 190.689 499.876 191.063C497.48 191.625 495.269 191.906 493.242 191.906C491.584 191.906 490.11 191.813 488.82 191.625C487.715 191.438 486.149 190.876 484.122 189.94V186.287C483.201 182.728 482.648 179.543 482.463 176.734C482.463 173.737 482.463 170.927 482.463 168.304C482.463 166.244 482.463 164.371 482.463 162.685C482.463 160.812 482.648 158.939 483.016 157.065C483.016 156.129 482.832 155.38 482.463 154.818C482.463 154.63 482.371 154.162 482.187 153.413C482.187 152.476 482.187 151.54 482.187 150.603C482.187 149.666 482.187 148.823 482.187 148.074C482.187 147.138 482.187 146.482 482.187 146.107V134.306C482.187 132.059 482.095 129.811 481.911 127.563C481.911 125.315 482.095 123.067 482.463 120.82C482.648 120.632 482.74 119.789 482.74 118.291C482.924 116.605 483.108 114.825 483.293 112.952C483.477 110.892 483.569 109.019 483.569 107.333C483.753 105.46 483.845 104.336 483.845 103.961C484.03 100.964 484.03 97.9668 483.845 94.9698C483.845 91.9727 483.938 89.0693 484.122 86.2595C484.122 80.8273 484.03 75.5825 483.845 70.5249C483.845 65.28 483.938 60.0351 484.122 54.7903C484.122 51.4185 484.122 48.1405 484.122 44.9561C484.122 41.5844 484.03 38.3063 483.845 35.122C483.661 33.4361 483.569 32.1249 483.569 31.1883C483.753 30.2517 483.845 29.4088 483.845 28.6595C484.03 27.7229 484.122 26.7863 484.122 25.8498C484.306 24.9132 484.306 23.5083 484.122 21.6351C484.122 19.762 484.214 17.9824 484.398 16.2966C484.582 14.4234 484.674 12.6439 484.674 10.9581C484.674 9.08488 484.582 7.49268 484.398 6.18147C484.398 4.87024 484.398 3.27805 484.398 1.40488L485.78 0C487.623 0 489.649 0.0936573 491.86 0.280972C494.072 0.468298 496.006 0.468298 497.665 0.280972C499.139 0.0936573 500.244 0 500.981 0C501.718 0 502.824 0 504.298 0C505.219 0 505.956 0.280978 506.509 0.842933C506.877 7.02439 506.877 13.1122 506.509 19.1063C506.14 25.1005 505.956 31.3756 505.956 37.9317V57.6C505.772 64.3434 505.495 70.6185 505.127 76.4254C504.943 82.2322 504.851 87.9454 504.851 93.5649C504.851 95.6254 504.943 97.7795 505.127 100.027C505.311 102.088 505.403 104.148 505.403 106.209Z" fill="#73160E"/>
<path d="M631 185.444L629.065 185.725C628.144 185.912 627.499 185.912 627.131 185.725C626.946 185.725 626.117 185.725 624.643 185.725C624.459 185.725 623.906 185.819 622.985 186.006C622.064 186.193 621.05 186.38 619.945 186.568C618.839 186.755 617.641 186.755 616.352 186.568C615.062 186.568 614.048 186.38 613.311 186.006C612.39 186.006 611.745 185.912 611.377 185.725C611.008 185.538 610.363 185.444 609.442 185.444C608.521 184.695 607.968 183.571 607.784 182.072C607.784 180.574 607.784 179.356 607.784 178.42V171.395L605.573 174.486L600.598 179.262C598.755 180.574 597.189 181.604 595.899 182.353C594.794 183.29 593.412 184.226 591.754 185.163C588.99 186.849 585.95 187.973 582.633 188.535C579.501 189.097 576.552 189.378 573.789 189.378C571.025 189.378 568.077 188.816 564.944 187.692C561.996 186.568 559.325 185.538 556.929 184.601C556.192 184.414 555.455 184.039 554.718 183.477C554.165 183.102 553.613 182.728 553.06 182.353C551.954 181.417 550.665 180.48 549.191 179.543C547.901 178.607 546.795 177.67 545.874 176.734C545.321 176.359 544.768 175.984 544.216 175.61C543.847 175.048 543.294 174.58 542.557 174.205C541.636 173.643 540.807 172.706 540.07 171.395C539.149 169.335 537.951 167.368 536.477 165.495C535.187 163.434 534.082 161.093 533.16 158.47C532.608 156.41 531.871 154.443 530.949 152.57C530.028 150.697 529.567 148.917 529.567 147.231C529.567 146.295 529.475 144.702 529.291 142.455C529.107 140.207 529.015 138.615 529.015 137.678C529.015 135.992 529.015 134.681 529.015 133.744C529.199 132.808 529.291 131.403 529.291 129.53C529.291 128.593 529.383 127.657 529.567 126.72C529.936 125.596 530.304 124.191 530.673 122.505C531.041 120.445 531.318 118.291 531.502 116.043C531.686 113.608 531.963 111.641 532.331 110.142C533.621 107.707 534.45 106.209 534.819 105.647C535.371 105.085 535.832 104.055 536.201 102.556C536.569 101.432 537.03 100.027 537.582 98.3415C538.319 96.4683 539.333 95.0634 540.623 94.1268C541.175 93.7522 542.005 93.0966 543.11 92.16C544.216 91.2234 545.321 90.1932 546.427 89.0693C547.716 87.9454 548.822 87.0088 549.743 86.2595C550.665 85.3229 551.31 84.8546 551.678 84.8546L556.653 82.6068C558.127 82.0449 559.785 81.6702 561.628 81.4829C563.47 81.1083 565.221 80.921 566.879 80.921L575.447 80.64C576.368 80.64 577.382 80.64 578.487 80.64C579.777 80.64 580.606 80.7337 580.975 80.921C581.896 80.921 582.817 81.202 583.738 81.7639C584.66 82.3259 585.581 82.6068 586.502 82.6068C587.424 82.6068 588.529 82.9815 589.819 83.7307C591.293 84.2927 592.491 85.042 593.412 85.9785C595.254 86.7278 596.636 87.6644 597.558 88.7883C598.663 89.7249 599.677 90.6615 600.598 91.5981C601.519 92.5346 602.348 93.4712 603.085 94.4078C604.007 95.1571 604.928 96 605.849 96.9366C605.849 97.4985 606.218 97.9668 606.955 98.3415C607.323 98.5288 607.6 98.7161 607.784 98.9034C608.152 98.5288 608.337 97.7795 608.337 96.6556C608.521 95.5317 608.889 94.5015 609.442 93.5649C609.626 90.9425 609.718 88.601 609.718 86.5405C609.903 84.2927 610.087 82.7942 610.271 82.0449C610.087 81.2956 610.179 80.2654 610.548 78.9542C610.916 77.4556 611.561 76.8937 612.482 77.2683C612.851 77.081 613.68 77.081 614.97 77.2683C616.26 77.4556 617.734 77.7366 619.392 78.1112C621.05 78.2985 622.708 78.4859 624.367 78.6732C626.209 78.8605 627.776 78.9542 629.065 78.9542C629.25 78.9542 629.342 79.4224 629.342 80.359C629.342 81.2956 629.25 82.0449 629.065 82.6068L630.724 109.58V139.926C630.724 140.488 630.631 141.05 630.447 141.612C630.447 142.174 630.447 142.736 630.447 143.298C630.631 144.983 630.724 146.763 630.724 148.636C630.724 150.322 630.724 152.101 630.724 153.975C630.908 155.286 630.908 156.691 630.724 158.189C630.724 159.5 630.724 160.905 630.724 162.404C630.724 163.528 630.724 165.12 630.724 167.18C630.908 169.054 631 171.02 631 173.081C631 175.141 631 177.108 631 178.981C631 181.042 631 182.728 631 184.039V185.444ZM595.347 142.174C595.347 141.05 595.531 138.615 595.899 134.868C596.268 130.935 595.439 126.158 593.412 120.539C592.859 119.04 592.03 117.448 590.924 115.762C589.819 114.076 588.068 112.765 585.673 111.828C584.383 111.454 583.186 111.079 582.08 110.704C580.975 110.142 579.777 109.955 578.487 110.142C577.197 110.517 575.539 111.36 573.512 112.671C571.67 113.982 570.104 115.575 568.814 117.448C567.893 118.384 567.34 119.415 567.156 120.539C566.971 121.662 566.787 122.974 566.603 124.472C566.05 126.907 565.589 128.78 565.221 130.092C565.036 131.403 564.944 133.089 564.944 135.149C564.944 138.896 565.958 142.174 567.985 144.983C570.196 147.793 571.578 149.666 572.13 150.603C572.683 151.165 573.144 151.54 573.512 151.727C574.065 151.727 574.802 152.195 575.723 153.132C577.566 154.068 579.316 154.256 580.975 153.694C582.633 152.944 584.475 152.101 586.502 151.165H588.161C589.819 150.228 591.201 149.292 592.306 148.355C593.412 147.419 594.425 146.014 595.347 144.14V142.174Z" fill="#73160E"/>
</svg>
