<svg width="242" height="74" viewBox="0 0 242 74" fill="none" xmlns="http://www.w3.org/2000/svg">
<path d="M29.2554 71.3649C29.1141 71.3649 28.8668 71.401 28.5135 71.4732C28.1601 71.5454 27.8068 71.5815 27.4535 71.5815C27.1002 71.6537 26.7822 71.6898 26.4995 71.6898C26.2875 71.762 26.2168 71.7981 26.2875 71.7981H21.0936C19.963 71.6537 19.009 71.5454 18.2317 71.4732C17.525 71.4732 16.889 71.5093 16.3237 71.5815C16.1824 71.5815 16.041 71.5093 15.8997 71.3649C15.7584 71.2927 15.6524 71.2205 15.5817 71.1483C15.511 70.4985 15.4757 69.5239 15.4757 68.2244C15.5464 66.9249 15.5817 65.9142 15.5817 65.1922V63.6761C15.723 62.4488 15.7584 61.3659 15.6877 60.4273C15.617 59.4166 15.5817 58.2976 15.5817 57.0703V54.6878C15.935 53.0995 16.0057 51.439 15.7937 49.7063C15.6524 47.9737 15.5817 46.3854 15.5817 44.9415V17.3268C15.5817 16.6049 15.405 16.2439 15.0517 16.2439C14.0624 16.1717 13.2851 16.1356 12.7198 16.1356C12.1544 16.1356 11.3771 16.1717 10.3878 16.2439C9.96381 16.2439 9.22182 16.1356 8.16185 15.919C7.17253 15.7024 6.50121 15.6302 6.14788 15.7024C5.79456 15.8468 5.05257 15.8468 3.92193 15.7024C2.86195 15.558 2.15529 15.4859 1.80197 15.4859C1.44864 15.4859 1.13065 15.4859 0.847984 15.4859C0.565323 15.4137 0.282661 15.2693 0 15.0527V8.33854C0.282661 8.19415 0.706653 8.12195 1.27198 8.12195C1.8373 8.12195 2.40262 8.12195 2.96794 8.12195C3.6746 8.12195 4.31058 8.12195 4.87591 8.12195C5.44123 8.12195 5.97122 8.08585 6.46588 8.01366C6.60721 8.01366 7.10186 8.04976 7.94985 8.12195C8.79783 8.19415 9.50449 8.26635 10.0698 8.33854C10.4938 8.19415 10.9178 8.12195 11.3418 8.12195C12.4018 8.04976 13.3911 8.04976 14.3097 8.12195C14.9457 8.19415 15.405 8.19415 15.6877 8.12195C15.9704 8.04976 16.3944 8.01366 16.9597 8.01366H18.6556L21.5176 8.23025C22.2242 8.23025 22.9309 8.23025 23.6376 8.23025C24.3442 8.15805 25.0509 8.15805 25.7575 8.23025C27.3828 8.37464 28.9374 8.44683 30.4214 8.44683C31.9761 8.37464 33.248 8.26634 34.2373 8.12195C34.732 8.12195 35.6153 8.19415 36.8873 8.33854C38.1593 8.48293 39.3959 8.59122 40.5972 8.66341C41.3745 8.73561 42.0105 8.73561 42.5052 8.66341C42.9998 8.59122 43.4238 8.59122 43.7772 8.66341V13.6449C43.7772 13.9337 43.8125 14.1141 43.8832 14.1863C43.9538 14.2585 43.9185 14.5834 43.7772 15.161C43.7065 15.4498 43.4238 15.6302 42.9292 15.7024C42.4345 15.7024 42.0459 15.7024 41.7632 15.7024C39.9259 15.9912 38.2299 16.0995 36.6753 16.0273C35.1913 15.9551 33.7427 15.919 32.3294 15.919C31.7641 15.919 31.3047 15.919 30.9514 15.919C30.6687 15.919 30.3154 15.9551 29.8914 16.0273V18.518C29.8914 19.0956 29.8561 19.962 29.7854 21.1171C29.7854 22.2722 29.7854 23.1746 29.7854 23.8244C29.7854 24.1132 29.7854 24.3298 29.7854 24.4741C29.7854 24.6185 29.7501 24.8351 29.6794 25.1239C29.6794 25.3405 29.6441 25.7015 29.5734 26.2068C29.5028 26.64 29.3614 27.2898 29.1494 28.1561C29.1494 29.3834 29.1494 30.4302 29.1494 31.2966C29.1494 32.1629 29.1494 32.9571 29.1494 33.679C29.2201 34.401 29.2554 35.1229 29.2554 35.8449C29.2554 36.4946 29.2554 37.2888 29.2554 38.2273V39.3102C28.9728 40.5376 28.9021 41.7649 29.0434 42.9922C29.1848 44.2195 29.2554 45.4468 29.2554 46.6742V71.3649Z" fill="#F1EBD9"/>
<path d="M89.3174 71.4732L88.5754 71.5815C88.2221 71.6537 87.9747 71.6537 87.8334 71.5815C87.7627 71.5815 87.4447 71.5815 86.8794 71.5815C86.8088 71.5815 86.5968 71.6176 86.2434 71.6898C85.8901 71.762 85.5014 71.8342 85.0775 71.9063C84.6535 71.9785 84.1941 71.9785 83.6995 71.9063C83.2048 71.9063 82.8162 71.8342 82.5335 71.6898C82.1802 71.6898 81.9328 71.6537 81.7915 71.5815C81.6502 71.5093 81.4029 71.4732 81.0495 71.4732C80.6962 71.1844 80.4842 70.7512 80.4135 70.1737C80.4135 69.5961 80.4135 69.1268 80.4135 68.7659V66.0585L79.5656 67.2498L77.6576 69.0907C76.9509 69.5961 76.3503 69.9932 75.8556 70.282C75.4316 70.6429 74.9016 71.0039 74.2657 71.3649C73.2057 72.0146 72.0397 72.4478 70.7677 72.6644C69.5664 72.881 68.4358 72.9893 67.3758 72.9893C66.3158 72.9893 65.1852 72.7727 63.9839 72.3395C62.8532 71.9063 61.8286 71.5093 60.9099 71.1483C60.6273 71.0761 60.3446 70.9317 60.0619 70.7151C59.8499 70.5707 59.6379 70.4263 59.4259 70.282C59.0019 69.921 58.5073 69.56 57.942 69.199C57.4473 68.8381 57.0233 68.4771 56.67 68.1161C56.458 67.9717 56.246 67.8273 56.034 67.6829C55.8927 67.4663 55.6807 67.2859 55.398 67.1415C55.0447 66.9249 54.7267 66.5639 54.444 66.0585C54.0907 65.2644 53.6314 64.5063 53.0661 63.7844C52.5714 62.9902 52.1474 62.0878 51.7941 61.0771C51.5821 60.2829 51.2994 59.5249 50.9461 58.8029C50.5928 58.081 50.4161 57.3951 50.4161 56.7454C50.4161 56.3844 50.3808 55.7707 50.3101 54.9044C50.2395 54.0381 50.2041 53.4244 50.2041 53.0634C50.2041 52.4137 50.2041 51.9083 50.2041 51.5473C50.2748 51.1863 50.3101 50.6449 50.3101 49.9229C50.3101 49.562 50.3454 49.201 50.4161 48.84C50.5574 48.4068 50.6988 47.8654 50.8401 47.2156C50.9814 46.4215 51.0874 45.5912 51.1581 44.7249C51.2288 43.7863 51.3348 43.0283 51.4761 42.4507C51.9707 41.5122 52.2887 40.9346 52.4301 40.7181C52.6421 40.5015 52.8187 40.1044 52.9601 39.5268C53.1014 39.0937 53.2781 38.5522 53.4901 37.9024C53.7727 37.1805 54.1614 36.639 54.656 36.278C54.868 36.1337 55.186 35.881 55.61 35.52C56.034 35.159 56.458 34.762 56.882 34.3288C57.3766 33.8956 57.8006 33.5346 58.154 33.2459C58.5073 32.8849 58.7546 32.7044 58.896 32.7044L60.8039 31.8381C61.3692 31.6215 62.0052 31.4771 62.7119 31.4049C63.4185 31.2605 64.0899 31.1883 64.7258 31.1883L68.0118 31.08C68.3651 31.08 68.7538 31.08 69.1778 31.08C69.6724 31.08 69.9904 31.1161 70.1317 31.1883C70.4851 31.1883 70.8384 31.2966 71.1917 31.5132C71.545 31.7298 71.8984 31.8381 72.2517 31.8381C72.605 31.8381 73.029 31.9824 73.5237 32.2712C74.089 32.4878 74.5483 32.7766 74.9016 33.1376C75.6083 33.4263 76.1383 33.7873 76.4916 34.2205C76.9156 34.5815 77.3043 34.9424 77.6576 35.3034C78.0109 35.6644 78.3289 36.0254 78.6116 36.3863C78.9649 36.6751 79.3182 37 79.6716 37.361C79.6716 37.5776 79.8129 37.7581 80.0956 37.9024C80.2369 37.9746 80.3429 38.0468 80.4135 38.119C80.5549 37.9746 80.6255 37.6859 80.6255 37.2527C80.6962 36.8195 80.8375 36.4224 81.0495 36.0615C81.1202 35.0507 81.1555 34.1483 81.1555 33.3542C81.2262 32.4878 81.2969 31.9102 81.3675 31.6215C81.2969 31.3327 81.3322 30.9356 81.4735 30.4302C81.6149 29.8527 81.8622 29.6361 82.2155 29.7805C82.3568 29.7083 82.6748 29.7083 83.1695 29.7805C83.6641 29.8527 84.2295 29.961 84.8655 30.1054C85.5014 30.1776 86.1374 30.2498 86.7734 30.322C87.4801 30.3941 88.0807 30.4302 88.5754 30.4302C88.646 30.4302 88.6814 30.6107 88.6814 30.9717C88.6814 31.3327 88.646 31.6215 88.5754 31.8381L89.2114 42.2341V53.9298C89.2114 54.1463 89.176 54.3629 89.1054 54.5795C89.1054 54.7961 89.1054 55.0127 89.1054 55.2293C89.176 55.879 89.2114 56.5649 89.2114 57.2868C89.2114 57.9366 89.2114 58.6224 89.2114 59.3444C89.282 59.8498 89.282 60.3912 89.2114 60.9688C89.2114 61.4741 89.2114 62.0156 89.2114 62.5932C89.2114 63.0263 89.2114 63.64 89.2114 64.4342C89.282 65.1561 89.3174 65.9142 89.3174 66.7083C89.3174 67.5024 89.3174 68.2605 89.3174 68.9824C89.3174 69.7766 89.3174 70.4263 89.3174 70.9317V71.4732ZM75.6436 54.7961C75.6436 54.3629 75.7143 53.4244 75.8556 51.9805C75.997 50.4644 75.679 48.6234 74.9016 46.4576C74.6897 45.88 74.3717 45.2663 73.9477 44.6166C73.5237 43.9668 72.8524 43.4615 71.9337 43.1005C71.439 42.9561 70.9797 42.8117 70.5557 42.6673C70.1317 42.4507 69.6724 42.3785 69.1778 42.4507C68.6831 42.5951 68.0471 42.92 67.2698 43.4254C66.5631 43.9307 65.9625 44.5444 65.4678 45.2663C65.1145 45.6273 64.9025 46.0244 64.8318 46.4576C64.7612 46.8907 64.6905 47.3961 64.6198 47.9737C64.4078 48.9122 64.2312 49.6341 64.0899 50.1395C64.0192 50.6449 63.9839 51.2946 63.9839 52.0888C63.9839 53.5327 64.3725 54.7961 65.1498 55.879C65.9978 56.962 66.5278 57.6839 66.7398 58.0449C66.9518 58.2615 67.1285 58.4059 67.2698 58.4781C67.4818 58.4781 67.7645 58.6585 68.1178 59.0195C68.8244 59.3805 69.4958 59.4527 70.1317 59.2361C70.7677 58.9473 71.4744 58.6224 72.2517 58.2615H72.8877C73.5237 57.9005 74.0537 57.5395 74.4777 57.1785C74.9016 56.8176 75.2903 56.2761 75.6436 55.5541V54.7961Z" fill="#F1EBD9"/>
<path d="M118.394 54.7961C118.465 54.9405 118.571 55.1932 118.712 55.5541C118.853 55.8429 118.995 56.0234 119.136 56.0956C119.489 56.0956 119.701 55.9512 119.772 55.6624C119.913 55.3015 120.161 54.9044 120.514 54.4712C121.433 52.5942 122.21 51.0059 122.846 49.7063C123.553 48.3346 124.365 46.7824 125.284 45.0498L127.298 40.0683C127.58 39.5629 127.969 38.8771 128.464 38.0107C129.029 37.0722 129.382 36.3503 129.524 35.8449C129.665 35.4117 129.771 35.0868 129.842 34.8702C129.983 34.6537 130.124 34.2927 130.266 33.7873C130.266 33.7151 130.336 33.4985 130.478 33.1376C130.69 32.7766 130.902 32.4156 131.114 32.0546C131.326 31.6937 131.502 31.3688 131.644 31.08C131.856 30.719 131.997 30.4663 132.068 30.322C133.481 30.6829 134.753 31.08 135.884 31.5132C137.014 31.8741 138.251 32.4156 139.594 33.1376C139.24 33.7873 138.958 34.3288 138.746 34.762C138.604 35.1229 138.463 35.52 138.322 35.9532C137.898 36.8195 137.368 37.722 136.732 38.6605C136.166 39.5268 135.813 40.1044 135.672 40.3932L133.764 45.0498C133.198 46.1327 132.562 47.2156 131.856 48.2985C131.785 48.4429 131.679 48.6595 131.538 48.9483C131.467 49.1649 131.361 49.3454 131.22 49.4898C130.866 50.0673 130.442 50.8976 129.948 51.9805C129.453 53.0634 128.888 54.2185 128.252 55.4459C127.686 56.601 127.121 57.72 126.556 58.8029C126.061 59.8137 125.637 60.5356 125.284 60.9688C124.718 62.0517 124.224 62.9902 123.8 63.7844C123.447 64.5785 123.023 65.5171 122.528 66.6C122.457 66.961 122.316 67.322 122.104 67.6829C121.963 67.9717 121.821 68.2966 121.68 68.6576C121.539 69.0185 121.397 69.3795 121.256 69.7405C121.115 70.1015 120.867 70.4624 120.514 70.8234C120.373 70.8956 120.055 70.9678 119.56 71.04C119.065 71.1122 118.535 71.1844 117.97 71.2566C117.405 71.3288 116.875 71.3649 116.38 71.3649C115.885 71.4371 115.532 71.4371 115.32 71.3649C115.179 71.2927 115.002 71.1122 114.79 70.8234C114.578 70.5346 114.366 70.2098 114.154 69.8488C114.013 69.56 113.871 69.2351 113.73 68.8742C113.589 68.5854 113.483 68.4049 113.412 68.3327L111.61 65.842C111.398 65.481 110.974 64.7229 110.338 63.5678C109.773 62.3405 109.101 61.2215 108.324 60.2107L106.204 56.0956C105.992 55.5902 105.674 54.9405 105.25 54.1463C104.826 53.28 104.438 52.6302 104.084 52.1971C103.802 51.8361 103.59 51.439 103.448 51.0059C103.378 50.5727 103.166 49.959 102.812 49.1649C102.459 48.8039 102.035 48.082 101.54 46.999C101.046 45.8439 100.445 44.9054 99.7383 44.1834C99.597 43.9668 99.3496 43.5698 98.9963 42.9922C98.643 42.4146 98.2897 41.9093 97.9363 41.4761C97.583 40.682 97.1943 39.9239 96.7703 39.202C96.3464 38.48 95.8517 37.6137 95.2864 36.6029C95.357 36.5307 95.4277 36.4224 95.4984 36.278C95.569 36.2059 95.781 36.0254 96.1344 35.7366C96.5584 35.3756 97.0177 34.9785 97.5123 34.5454C98.007 34.1122 98.749 33.679 99.7383 33.2459L103.448 30.322C103.59 30.322 103.731 30.3581 103.872 30.4302C104.084 30.5024 104.261 30.5746 104.402 30.6468L104.72 30.9717C105.639 31.9102 106.275 32.8849 106.628 33.8956C107.052 34.9063 107.653 35.9171 108.43 36.9278C108.642 37.2888 108.889 37.7941 109.172 38.4439C109.525 39.0937 109.843 39.7795 110.126 40.5015C110.479 41.2234 110.833 41.9093 111.186 42.559C111.539 43.1366 111.822 43.6059 112.034 43.9668C113.165 45.4829 114.26 47.2878 115.32 49.3815C116.451 51.4751 117.475 53.28 118.394 54.7961Z" fill="#F1EBD9"/>
<path d="M153.53 29.5639C154.024 29.4195 154.625 29.2029 155.332 28.9141C156.038 28.6254 156.745 28.481 157.452 28.481C158.37 28.481 159.218 28.481 159.996 28.481C160.773 28.4088 161.621 28.3727 162.54 28.3727C163.246 28.3727 163.918 28.4088 164.554 28.481C165.26 28.481 165.896 28.5893 166.462 28.8059C166.603 28.8059 166.78 28.842 166.992 28.9141C167.204 28.9863 167.486 29.2029 167.84 29.5639C168.546 29.7805 169.217 30.1415 169.853 30.6468C170.489 31.1522 171.055 31.7659 171.549 32.4878C172.115 33.2098 172.609 33.9678 173.033 34.762C173.528 35.4839 173.952 36.2059 174.305 36.9278C174.659 37.5054 174.871 38.2634 174.941 39.202C175.083 40.1405 175.259 40.8985 175.471 41.4761C175.471 42.4868 175.507 43.4615 175.577 44.4C175.719 45.3385 175.789 46.3132 175.789 47.3239C175.789 48.9844 175.754 50.5727 175.683 52.0888C175.613 53.6049 175.577 55.1932 175.577 56.8537L175.365 60.4273C175.365 60.7161 175.224 61.2215 174.941 61.9434C174.659 62.6654 174.482 63.2068 174.411 63.5678C174.199 64.2898 173.917 65.1561 173.563 66.1668C173.21 67.1054 172.963 67.6468 172.821 67.7912C172.468 68.1522 172.221 68.4771 172.079 68.7659C171.938 69.0546 171.797 69.3434 171.655 69.6322C171.585 69.921 171.443 70.1737 171.231 70.3903C171.09 70.6068 170.807 70.8234 170.383 71.04C170.03 71.1844 169.606 71.401 169.111 71.6898C168.617 72.0507 168.158 72.3756 167.734 72.6644C167.38 72.8088 167.204 72.9171 167.204 72.9893C167.204 73.1337 166.956 73.2781 166.462 73.4224L164.554 73.8556C163.706 74 162.999 74.0361 162.434 73.9639C161.939 73.8917 161.374 73.8556 160.738 73.8556C158.759 73.8556 156.78 73.4585 154.802 72.6644C154.166 72.6644 153.53 72.52 152.894 72.2312C152.328 71.9424 151.904 71.6176 151.622 71.2566C151.268 70.9678 150.915 70.6429 150.562 70.282C150.209 69.9932 149.855 69.6683 149.502 69.3073C148.937 68.6576 148.477 68.0078 148.124 67.3581C147.771 66.7083 147.417 66.0224 147.064 65.3005C146.711 64.5063 146.322 63.7122 145.898 62.9181C145.474 62.0517 145.191 61.1132 145.05 60.1024C144.909 58.442 144.767 56.9259 144.626 55.5541C144.555 54.1824 144.52 52.8107 144.52 51.439V46.999C144.449 46.8546 144.414 46.5659 144.414 46.1327C144.414 45.6995 144.449 45.4107 144.52 45.2663C144.52 44.9054 144.52 44.5444 144.52 44.1834C144.591 43.7502 144.661 43.3532 144.732 42.9922C144.803 42.4146 144.838 41.8371 144.838 41.2595C144.838 40.682 145.015 40.1044 145.368 39.5268C145.297 39.6712 145.333 39.5629 145.474 39.202C145.686 38.7688 145.898 38.3356 146.11 37.9024C146.322 37.3971 146.499 36.9639 146.64 36.6029C146.781 36.242 146.852 36.0976 146.852 36.1698L147.594 34.762C147.806 34.5454 148.018 34.2927 148.23 34.0039C148.442 33.7151 148.725 33.3902 149.078 33.0293C149.502 32.6683 150.032 32.199 150.668 31.6215C151.374 31.0439 152.328 30.3581 153.53 29.5639ZM161.268 47.5405C160.985 47.5405 160.702 47.6849 160.42 47.9737C160.208 48.2624 160.066 48.5151 159.996 48.7317C159.501 49.8146 159.254 50.7171 159.254 51.439C159.254 53.3883 159.925 54.6878 161.268 55.3376C161.621 55.3376 161.904 55.2293 162.116 55.0127C162.398 54.7239 162.54 54.4351 162.54 54.1463C162.54 53.4244 162.61 52.5942 162.752 51.6556C162.964 50.7171 162.893 49.7424 162.54 48.7317C162.186 48.3707 161.974 48.082 161.904 47.8654C161.833 47.6488 161.621 47.5405 161.268 47.5405Z" fill="#F1EBD9"/>
<path d="M193.831 40.9346C193.902 41.079 193.937 41.44 193.937 42.0176C193.937 42.5951 193.937 43.0283 193.937 43.3171C193.796 43.6781 193.725 44.039 193.725 44.4C193.725 44.6888 193.725 45.0137 193.725 45.3746C193.725 45.8078 193.761 46.6381 193.831 47.8654C193.902 49.0205 193.937 49.8507 193.937 50.3561V52.7385C193.937 53.3883 193.937 54.0381 193.937 54.6878C194.008 55.3376 194.043 55.9873 194.043 56.6371C194.043 57.1424 194.008 57.6478 193.937 58.1532C193.867 58.5863 193.867 59.0556 193.937 59.561C193.937 59.9942 193.973 60.4273 194.043 60.8605C194.114 61.2215 194.149 61.6185 194.149 62.0517V71.9063C194.149 72.2673 194.185 72.6283 194.255 72.9893C194.397 73.3503 194.361 73.4946 194.149 73.4224C193.443 73.4224 192.63 73.4946 191.711 73.639C190.793 73.8556 189.945 73.9639 189.167 73.9639C188.531 73.9639 187.966 73.9278 187.471 73.8556C187.048 73.7834 186.447 73.5668 185.67 73.2059V71.7981C185.316 70.4263 185.104 69.199 185.034 68.1161C185.034 66.961 185.034 65.8781 185.034 64.8673C185.034 64.0732 185.034 63.3512 185.034 62.7015C185.034 61.9795 185.104 61.2576 185.246 60.5356C185.246 60.1746 185.175 59.8859 185.034 59.6693C185.034 59.5971 184.998 59.4166 184.928 59.1278C184.928 58.7668 184.928 58.4059 184.928 58.0449C184.928 57.6839 184.928 57.359 184.928 57.0703C184.928 56.7093 184.928 56.4566 184.928 56.3122V51.7639C184.928 50.8976 184.892 50.0312 184.822 49.1649C184.822 48.2985 184.892 47.4322 185.034 46.5659C185.104 46.4937 185.14 46.1688 185.14 45.5912C185.21 44.9415 185.281 44.2556 185.352 43.5337C185.422 42.7395 185.458 42.0176 185.458 41.3678C185.528 40.6459 185.564 40.2127 185.564 40.0683C185.634 38.9132 185.634 37.7581 185.564 36.6029C185.564 35.4478 185.599 34.3288 185.67 33.2459C185.67 31.1522 185.634 29.1307 185.564 27.1815C185.564 25.16 185.599 23.1385 185.67 21.1171C185.67 19.8176 185.67 18.5541 185.67 17.3268C185.67 16.0273 185.634 14.7639 185.564 13.5366C185.493 12.8868 185.458 12.3815 185.458 12.0205C185.528 11.6595 185.564 11.3346 185.564 11.0459C185.634 10.6849 185.67 10.3239 185.67 9.96293C185.74 9.60195 185.74 9.06049 185.67 8.33854C185.67 7.61659 185.705 6.93074 185.776 6.28098C185.846 5.55903 185.882 4.87317 185.882 4.22342C185.882 3.50146 185.846 2.8878 185.776 2.38244C185.776 1.87707 185.776 1.26341 185.776 0.541463L186.306 0C187.012 0 187.789 0.0360971 188.637 0.108291C189.485 0.18049 190.227 0.18049 190.863 0.108291C191.429 0.0360971 191.853 0 192.135 0C192.418 0 192.842 0 193.407 0C193.761 0 194.043 0.108293 194.255 0.32488C194.397 2.70732 194.397 5.05366 194.255 7.3639C194.114 9.67415 194.043 12.0927 194.043 14.6195V22.2C193.973 24.799 193.867 27.2176 193.725 29.4556C193.655 31.6937 193.619 33.8956 193.619 36.0615C193.619 36.8556 193.655 37.6859 193.725 38.5522C193.796 39.3463 193.831 40.1405 193.831 40.9346Z" fill="#F1EBD9"/>
<path d="M242 71.4732L241.258 71.5815C240.905 71.6537 240.657 71.6537 240.516 71.5815C240.445 71.5815 240.127 71.5815 239.562 71.5815C239.491 71.5815 239.279 71.6176 238.926 71.6898C238.573 71.762 238.184 71.8342 237.76 71.9063C237.336 71.9785 236.877 71.9785 236.382 71.9063C235.887 71.9063 235.499 71.8342 235.216 71.6898C234.863 71.6898 234.615 71.6537 234.474 71.5815C234.333 71.5093 234.085 71.4732 233.732 71.4732C233.379 71.1844 233.167 70.7512 233.096 70.1737C233.096 69.5961 233.096 69.1268 233.096 68.7659V66.0585L232.248 67.2498L230.34 69.0907C229.634 69.5961 229.033 69.9932 228.538 70.282C228.114 70.6429 227.584 71.0039 226.948 71.3649C225.888 72.0146 224.722 72.4478 223.45 72.6644C222.249 72.881 221.118 72.9893 220.058 72.9893C218.998 72.9893 217.868 72.7727 216.666 72.3395C215.536 71.9063 214.511 71.5093 213.593 71.1483C213.31 71.0761 213.027 70.9317 212.745 70.7151C212.533 70.5707 212.321 70.4263 212.109 70.282C211.685 69.921 211.19 69.56 210.625 69.199C210.13 68.8381 209.706 68.4771 209.353 68.1161C209.141 67.9717 208.929 67.8273 208.717 67.6829C208.575 67.4663 208.363 67.2859 208.081 67.1415C207.727 66.9249 207.409 66.5639 207.127 66.0585C206.773 65.2644 206.314 64.5063 205.749 63.7844C205.254 62.9902 204.83 62.0878 204.477 61.0771C204.265 60.2829 203.982 59.5249 203.629 58.8029C203.275 58.081 203.099 57.3951 203.099 56.7454C203.099 56.3844 203.063 55.7707 202.993 54.9044C202.922 54.0381 202.887 53.4244 202.887 53.0634C202.887 52.4137 202.887 51.9083 202.887 51.5473C202.957 51.1863 202.993 50.6449 202.993 49.9229C202.993 49.562 203.028 49.201 203.099 48.84C203.24 48.4068 203.381 47.8654 203.523 47.2156C203.664 46.4215 203.77 45.5912 203.841 44.7249C203.911 43.7863 204.017 43.0283 204.159 42.4507C204.653 41.5122 204.971 40.9346 205.113 40.7181C205.325 40.5015 205.501 40.1044 205.643 39.5268C205.784 39.0937 205.961 38.5522 206.173 37.9024C206.455 37.1805 206.844 36.639 207.339 36.278C207.551 36.1337 207.869 35.881 208.293 35.52C208.717 35.159 209.141 34.762 209.565 34.3288C210.059 33.8956 210.483 33.5346 210.837 33.2459C211.19 32.8849 211.437 32.7044 211.579 32.7044L213.487 31.8381C214.052 31.6215 214.688 31.4771 215.395 31.4049C216.101 31.2605 216.772 31.1883 217.408 31.1883L220.694 31.08C221.048 31.08 221.436 31.08 221.86 31.08C222.355 31.08 222.673 31.1161 222.814 31.1883C223.168 31.1883 223.521 31.2966 223.874 31.5132C224.228 31.7298 224.581 31.8381 224.934 31.8381C225.288 31.8381 225.712 31.9824 226.206 32.2712C226.772 32.4878 227.231 32.7766 227.584 33.1376C228.291 33.4263 228.821 33.7873 229.174 34.2205C229.598 34.5815 229.987 34.9424 230.34 35.3034C230.694 35.6644 231.012 36.0254 231.294 36.3863C231.648 36.6751 232.001 37 232.354 37.361C232.354 37.5776 232.496 37.7581 232.778 37.9024C232.919 37.9746 233.025 38.0468 233.096 38.119C233.238 37.9746 233.308 37.6859 233.308 37.2527C233.379 36.8195 233.52 36.4224 233.732 36.0615C233.803 35.0507 233.838 34.1483 233.838 33.3542C233.909 32.4878 233.979 31.9102 234.05 31.6215C233.979 31.3327 234.015 30.9356 234.156 30.4302C234.297 29.8527 234.545 29.6361 234.898 29.7805C235.039 29.7083 235.357 29.7083 235.852 29.7805C236.347 29.8527 236.912 29.961 237.548 30.1054C238.184 30.1776 238.82 30.2498 239.456 30.322C240.163 30.3941 240.763 30.4302 241.258 30.4302C241.329 30.4302 241.364 30.6107 241.364 30.9717C241.364 31.3327 241.329 31.6215 241.258 31.8381L241.894 42.2341V53.9298C241.894 54.1463 241.859 54.3629 241.788 54.5795C241.788 54.7961 241.788 55.0127 241.788 55.2293C241.859 55.879 241.894 56.5649 241.894 57.2868C241.894 57.9366 241.894 58.6224 241.894 59.3444C241.965 59.8498 241.965 60.3912 241.894 60.9688C241.894 61.4741 241.894 62.0156 241.894 62.5932C241.894 63.0263 241.894 63.64 241.894 64.4342C241.965 65.1561 242 65.9142 242 66.7083C242 67.5024 242 68.2605 242 68.9824C242 69.7766 242 70.4263 242 70.9317V71.4732ZM228.326 54.7961C228.326 54.3629 228.397 53.4244 228.538 51.9805C228.68 50.4644 228.362 48.6234 227.584 46.4576C227.372 45.88 227.054 45.2663 226.63 44.6166C226.206 43.9668 225.535 43.4615 224.616 43.1005C224.122 42.9561 223.662 42.8117 223.238 42.6673C222.814 42.4507 222.355 42.3785 221.86 42.4507C221.366 42.5951 220.73 42.92 219.952 43.4254C219.246 43.9307 218.645 44.5444 218.15 45.2663C217.797 45.6273 217.585 46.0244 217.514 46.4576C217.444 46.8907 217.373 47.3961 217.302 47.9737C217.09 48.9122 216.914 49.6341 216.772 50.1395C216.702 50.6449 216.666 51.2946 216.666 52.0888C216.666 53.5327 217.055 54.7961 217.832 55.879C218.68 56.962 219.21 57.6839 219.422 58.0449C219.634 58.2615 219.811 58.4059 219.952 58.4781C220.164 58.4781 220.447 58.6585 220.8 59.0195C221.507 59.3805 222.178 59.4527 222.814 59.2361C223.45 58.9473 224.157 58.6224 224.934 58.2615H225.57C226.206 57.9005 226.736 57.5395 227.16 57.1785C227.584 56.8176 227.973 56.2761 228.326 55.5541V54.7961Z" fill="#F1EBD9"/>
</svg>
